<svg width="100" height="100" viewBox="0 0 100 100" fill="none" xmlns="http://www.w3.org/2000/svg">
<g clip-path="url(#clip0_43_345)">
<path d="M50 100C77.6142 100 100 77.6142 100 50C100 22.3858 77.6142 0 50 0C22.3858 0 0 22.3858 0 50C0 77.6142 22.3858 100 50 100Z" fill="#D80027"/>
<path d="M27.3633 30.4297L31.6797 43.7109H45.6445L34.3555 51.9336L38.6719 65.2148L27.3633 57.0117L16.0547 65.2148L20.3906 51.9336L9.08203 43.7109H23.0469L27.3633 30.4297Z" fill="#FFDA44"/>
<path d="M59.2773 77.4414L55.9766 73.3789L51.0938 75.2734L53.9258 70.8789L50.625 66.7969L55.6836 68.1445L58.5352 63.75L58.8086 68.9844L63.8867 70.332L58.9844 72.207L59.2773 77.4414Z" fill="#FFDA44"/>
<path d="M65.8398 65.5273L67.4023 60.5273L63.125 57.5L68.3594 57.4219L69.9023 52.4219L71.6016 57.3828L76.8359 57.3242L72.6367 60.4492L74.3164 65.4102L70.0391 62.3828L65.8398 65.5273Z" fill="#FFDA44"/>
<path d="M74.6875 36.6992L72.3828 41.4062L76.1328 45.0586L70.957 44.3164L68.6523 49.0039L67.7539 43.8477L62.5586 43.1055L67.207 40.6641L66.3086 35.4883L70.0586 39.1406L74.6875 36.6992Z" fill="#FFDA44"/>
<path d="M59.4141 22.4414L59.0234 27.6563L63.8867 29.6289L58.7891 30.8789L58.418 36.1133L55.6641 31.6602L50.5664 32.9102L53.9453 28.9063L51.1719 24.4727L56.0352 26.4453L59.4141 22.4414Z" fill="#FFDA44"/>
</g>
<defs>
<clipPath id="clip0_43_345">
<rect width="100" height="100" fill="white"/>
</clipPath>
</defs>
</svg>
