<svg width="1250" height="1250" viewBox="0 0 1250 1250" fill="none" xmlns="http://www.w3.org/2000/svg">
<path d="M1250 624.954C1249.89 767.23 1201.3 905.218 1112.25 1016.15C1023.19 1127.08 899.002 1204.33 760.161 1235.15C621.319 1265.97 476.123 1248.51 348.53 1185.67C220.937 1122.83 118.571 1018.35 58.3212 889.468V889.468C10.1355 785.777 -8.74001 670.863 3.74336 557.198C16.2267 443.533 59.592 335.46 129.133 244.709V244.709C149.67 217.979 172.304 192.929 196.82 169.796V169.796C309.241 63.9927 456.83 3.56252 611.142 0.152573C765.453 -3.25738 915.566 50.5943 1032.55 151.329V151.329C1100.76 209.94 1155.51 282.607 1193.04 364.354C1230.57 446.101 1250 534.997 1250 624.954V624.954Z" fill="#E0F1FA"/>
<path d="M1250 624.942C1250.1 692.55 1238.69 759.206 1217.21 823.31C1207.75 807.494 1213.27 762.645 1213.27 762.645C1192.89 784.547 1178.2 811.115 1170.48 840.02C1156.85 889.268 1146.43 898.644 1142.08 895.518C1137.72 892.393 1140.94 851.575 1132.61 837.937C1124.28 824.299 1133.65 805.547 1116.9 803.464C1100.14 801.38 1107.43 774.105 1077.23 772.021C1047.03 769.938 1044.76 763.687 1019.67 757.437C999.982 752.607 995.154 731.582 993.923 722.679C993.865 722.224 993.693 721.79 993.424 721.417C993.155 721.045 992.797 720.747 992.382 720.549C991.968 720.351 991.51 720.26 991.052 720.285C990.593 720.31 990.148 720.449 989.758 720.69C984.172 724.479 974.8 734.518 977.829 758.573C981.995 792.099 987.296 797.213 1005 788.879C1022.7 780.545 1040.59 772.116 1049.02 802.517C1057.44 832.917 1024.03 847.029 998.467 870.137C972.907 893.245 931.442 901.579 925.194 885.763C916.243 864.003 904.294 843.601 889.694 825.152C873.979 806.21 869.814 758.857 864.607 751.943C859.4 745.03 825.888 749.86 845.673 768.707C865.459 787.553 877.103 853.374 891.682 869C906.261 884.627 900.013 917.206 933.43 922.415C966.848 927.624 1012.95 858.583 988.906 916.069C964.86 973.556 896.51 1026.97 879.754 1047.9C862.997 1068.83 883.919 1111.83 867.258 1117.98C850.596 1124.14 823.332 1146.39 815.948 1165.34C808.564 1184.28 744.947 1209.19 731.315 1220.74C717.682 1232.29 683.981 1223.86 670.727 1210.23C657.474 1196.59 613.927 1172.34 636.174 1135.98C658.421 1099.61 636.174 1059.64 620.459 1037.67C604.744 1015.7 630.967 992.687 612.128 996.854C593.289 1001.02 589.124 986.341 570.285 973.84C551.446 961.339 475.617 981.227 435.478 973.84C395.339 966.453 373.66 875.441 363.247 837.558C352.833 799.676 425.538 754.027 428.567 733.381C431.597 712.735 445.986 696.351 478.646 693.036C511.307 689.721 597.833 669.265 617.335 671.159C636.836 673.053 674.135 734.802 693.732 735.275C713.328 735.749 712.665 722.963 720.712 713.872C728.759 704.78 789.346 736.506 804.872 730.066C820.397 723.626 833.272 727.414 846.809 716.807C860.347 706.2 858.643 687.259 856.276 670.78C853.909 654.301 843.969 666.708 827.876 671.727C820.683 674.222 812.952 674.738 805.492 673.222C798.031 671.706 791.115 668.213 785.465 663.109C774.578 653.07 785.465 645.304 791.902 627.026C798.339 608.748 814.622 615.188 829.769 604.675C844.916 594.163 874.926 618.313 899.539 607.895C924.153 597.478 867.163 582.325 859.873 564.993C852.584 547.662 808.09 543.59 793.606 563.005C779.122 582.419 789.441 581.946 784.139 597.572C778.838 613.199 787.831 613.388 781.394 620.397C774.956 627.405 770.223 616.798 756.496 624.564C742.769 632.33 759.904 660.078 743.243 670.97C726.581 681.861 722.984 644.262 721.185 627.878C719.387 611.494 703.293 601.455 690.797 594.258C678.301 587.06 657.095 550.03 639.96 563.857C622.825 577.684 650.374 587.439 657.095 596.815C663.817 606.191 685.969 613.388 695.53 616.514C698.634 617.24 701.342 619.125 703.102 621.783C704.862 624.442 705.54 627.672 704.997 630.814C704.997 633.371 699.696 632.898 694.205 632.33C688.714 631.761 681.235 629.204 685.874 639.054C690.513 648.903 684.833 652.312 680.951 658.563C677.07 664.814 670.065 662.446 672.81 651.271C675.555 640.095 658.61 620.681 642.516 614.998C626.423 609.316 618.849 575.79 604.649 578.252C590.449 580.715 588.461 586.871 566.782 588.575C561.481 588.575 556.085 586.018 556.274 588.575C556.494 589.445 556.494 590.357 556.274 591.227C552.771 620.207 537.34 621.912 523.803 631.382C510.266 640.853 514.336 657.805 503.26 669.265C492.184 680.724 408.592 688.206 434.058 646.251C459.524 604.297 416.166 605.338 446.081 589.428C475.996 573.517 506.763 588.575 511.78 563.857C516.798 539.139 493.888 561.205 484.516 535.445C475.144 509.685 528.063 500.309 545.387 490.933C562.711 481.557 556.274 458.544 572.557 463.658C588.84 468.772 600.01 446.894 588.272 433.351C576.533 419.809 604.081 393.575 610.897 402.098C622.163 416.399 602.472 428.143 605.785 453.334C608.152 472.276 621.121 467.92 639.96 469.624C658.799 471.329 701.494 431.741 714.18 415.831C726.865 399.92 722.795 390.165 736.427 386.756C750.059 383.347 766.342 365.352 756.023 356.829C745.704 348.305 729.516 361.943 710.866 366.3C692.217 370.656 696.288 359.481 692.88 341.581C689.472 323.682 699.696 324.439 711.813 311.749C723.931 299.058 729.705 287.788 717.02 289.493C708.06 291.121 699.547 294.63 692.041 299.789C684.535 304.947 678.207 311.638 673.473 319.42C658.894 339.782 664.006 349.158 670.822 369.709C674.325 380.505 678.963 394.143 672.053 404.277C665.142 414.41 665.615 419.714 653.119 429.184C632.671 445.284 626.801 421.892 627.464 405.981C628.221 383.157 618.755 382.305 611.465 381.453C604.176 380.6 593.573 395.185 577.574 400.394C551.919 408.349 562.333 377.191 557.694 358.344C553.055 339.498 613.927 315.063 625.476 274.908C630.843 261.156 638.997 248.663 649.423 238.216C659.85 227.768 672.325 219.592 686.063 214.202C711.434 206.057 737.563 218.463 755.55 220.736C793.417 225.472 812.35 277.56 833.177 277.56C854.004 277.56 921.086 233.248 934.244 204.268C943.711 183.149 1020.98 152.969 1032.21 150.984C1100.38 209.701 1155.96 282.327 1193.4 364.158C1230.83 445.989 1250.14 534.949 1250 624.942Z" fill="url(#paint0_linear_37_1158)"/>
<path d="M481.674 389.886C488.585 387.518 499.472 394.905 500.608 394.905C501.744 394.905 498.146 429.947 508.087 438.849C518.027 447.751 518.405 467.261 524.843 463.094C531.28 458.927 542.64 460.631 540.179 470.575C537.718 480.52 513.483 486.581 506.193 490.085C498.904 493.589 483.378 500.692 477.793 504.575C472.208 508.458 486.218 480.804 492.94 476.163C497.01 473.511 483.473 468.776 483.473 460.347C484.092 453.584 485.588 446.931 487.922 440.554C488.585 436.765 473.249 423.98 469.557 417.351C465.865 410.721 474.669 392.443 481.674 389.886Z" fill="url(#paint1_linear_37_1158)"/>
<path d="M456.02 440.364C458.86 438.185 463.026 434.113 467.286 435.818C471.546 437.523 473.345 445.288 472.966 449.645C472.587 454.001 467.664 457.6 467.664 462.714C467.664 467.828 471.83 479.099 465.203 480.993C458.576 482.887 446.932 483.076 444.471 487.622C442.01 492.168 435.004 493.304 433.868 488.569C433.031 486.101 432.853 483.457 433.351 480.899C433.849 478.341 435.006 475.958 436.708 473.984C441.063 469.628 437.276 468.207 435.761 461.767C435.076 459.606 434.996 457.297 435.53 455.093C436.064 452.889 437.192 450.874 438.791 449.266C441.442 446.235 442.956 454.948 447.122 451.918C449.7 447.782 452.68 443.912 456.02 440.364Z" fill="url(#paint2_linear_37_1158)"/>
<path d="M907.206 103.863C907.206 103.863 891.965 116.838 886.095 116.175C880.226 115.512 868.582 127.918 868.582 134.358C868.582 140.798 869.15 156.709 868.582 167.221C868.014 177.734 864.984 187.204 877.291 190.14C889.598 193.076 911.372 204.251 913.076 198.38C914.78 192.508 889.503 181.901 890.45 162.581C891.397 143.261 893.763 127.918 906.07 122.709C918.377 117.501 921.312 112.671 916.01 108.03C910.709 103.389 915.726 97.4228 907.206 103.863Z" fill="url(#paint3_linear_37_1158)"/>
<path d="M481.768 56.8009C469.083 79.341 425.63 108.889 418.53 132.566C411.43 156.242 400.543 218.559 361.73 242.614C322.916 266.67 248.696 291.956 231.751 327.187C214.805 362.418 219.16 393.481 206.475 389.125C193.789 384.768 154.218 342.719 169.838 297.544C185.458 252.369 216.32 250.191 214.9 212.308C213.669 175.657 197.86 169.975 195.966 169.501C259.841 109.379 335.682 63.4232 418.53 34.6397C418.53 34.6397 494.454 34.1661 481.768 56.8009Z" fill="url(#paint4_linear_37_1158)"/>
<path d="M94.1044 428.99C94.1044 441.68 133.581 466.872 115.31 491.59C97.0391 516.309 58.5093 499.451 53.3026 527.673C48.0959 555.896 62.7694 575.689 46.2025 586.959C30.1403 598.755 14.719 611.401 0.00468589 624.842C-0.24497 487.225 45.1717 353.418 129.131 244.407V244.407L131.972 243.176C131.972 243.176 137.841 282.479 137.841 288.067C137.841 293.655 125.155 344.891 116.73 352.941C108.305 360.991 70.7215 374.628 70.7215 389.876C70.7215 405.124 95.9978 378.89 97.5125 389.876C99.0271 400.862 94.1044 416.299 94.1044 428.99Z" fill="url(#paint5_linear_37_1158)"/>
<path d="M355.389 292.706C352.265 300.756 359.933 313.825 355.389 319.603C350.845 325.38 354.158 329.073 367.696 328.126C381.233 327.179 380.002 341.953 387.671 336.176C395.276 329.764 402.338 322.731 408.781 315.151C418.816 304.639 427.242 288.065 416.45 285.792C405.657 283.519 396.475 289.297 387.481 289.297C378.488 289.297 366.465 283.141 362.205 285.224C359.296 287.053 356.94 289.64 355.389 292.706Z" fill="url(#paint6_linear_37_1158)"/>
<path d="M248.034 1085.13C252.464 1097.56 252.96 1111.05 249.454 1123.77H248.602C167.029 1062.36 101.704 981.921 58.3194 889.468V889.468C58.2431 886.552 57.5663 883.682 56.3314 881.039C56.0301 880.663 55.8907 880.182 55.944 879.702C55.9973 879.223 56.2388 878.784 56.6154 878.482C56.992 878.181 57.4728 878.042 57.9522 878.095C58.4315 878.148 58.8701 878.39 59.1714 878.766C72.0523 892.284 85.8089 904.939 100.352 916.649C118.717 930.192 140.964 933.886 149.579 964.57C158.194 995.255 164.253 987.963 188.866 994.119C213.48 1000.27 264.032 1010.12 264.032 1038.44C264.032 1066.76 241.123 1062.97 248.034 1085.13Z" fill="url(#paint7_linear_37_1158)"/>
<path d="M895.561 1107.95C895.561 1107.95 935.416 1095.35 939.676 1085.5C943.936 1075.65 952.835 1083.61 944.788 1096.68C934.609 1110.12 923.165 1122.55 910.613 1133.8C910.613 1133.8 892.342 1161.46 881.55 1158.61C870.758 1155.77 888.082 1140.34 889.976 1127.17C891.869 1114.01 888.555 1115.05 895.561 1107.95Z" fill="url(#paint8_linear_37_1158)"/>
<defs>
<linearGradient id="paint0_linear_37_1158" x1="362.227" y1="688.582" x2="1250" y2="688.582" gradientUnits="userSpaceOnUse">
<stop stop-color="#085078"/>
<stop offset="1" stop-color="#85D8CE"/>
</linearGradient>
<linearGradient id="paint1_linear_37_1158" x1="468.686" y1="447.183" x2="540.522" y2="447.183" gradientUnits="userSpaceOnUse">
<stop stop-color="#085078"/>
<stop offset="1" stop-color="#85D8CE"/>
</linearGradient>
<linearGradient id="paint2_linear_37_1158" x1="433.075" y1="463.515" x2="473.015" y2="463.515" gradientUnits="userSpaceOnUse">
<stop stop-color="#085078"/>
<stop offset="1" stop-color="#85D8CE"/>
</linearGradient>
<linearGradient id="paint3_linear_37_1158" x1="867.842" y1="150.55" x2="918.533" y2="150.55" gradientUnits="userSpaceOnUse">
<stop stop-color="#085078"/>
<stop offset="1" stop-color="#85D8CE"/>
</linearGradient>
<linearGradient id="paint4_linear_37_1158" x1="166.243" y1="212.087" x2="483.198" y2="212.087" gradientUnits="userSpaceOnUse">
<stop stop-color="#085078"/>
<stop offset="1" stop-color="#85D8CE"/>
</linearGradient>
<linearGradient id="paint5_linear_37_1158" x1="0.00366211" y1="434.009" x2="137.841" y2="434.009" gradientUnits="userSpaceOnUse">
<stop stop-color="#085078"/>
<stop offset="1" stop-color="#85D8CE"/>
</linearGradient>
<linearGradient id="paint6_linear_37_1158" x1="353.472" y1="311.157" x2="421.488" y2="311.157" gradientUnits="userSpaceOnUse">
<stop stop-color="#085078"/>
<stop offset="1" stop-color="#85D8CE"/>
</linearGradient>
<linearGradient id="paint7_linear_37_1158" x1="55.9329" y1="1000.93" x2="264.032" y2="1000.93" gradientUnits="userSpaceOnUse">
<stop stop-color="#085078"/>
<stop offset="1" stop-color="#85D8CE"/>
</linearGradient>
<linearGradient id="paint8_linear_37_1158" x1="878.035" y1="1119.96" x2="948.04" y2="1119.96" gradientUnits="userSpaceOnUse">
<stop stop-color="#085078"/>
<stop offset="1" stop-color="#85D8CE"/>
</linearGradient>
</defs>
</svg>
