<svg width="100" height="100" viewBox="0 0 100 100" fill="none" xmlns="http://www.w3.org/2000/svg">
<g clip-path="url(#clip0_43_348)">
<path d="M3.10999 67.3912C10.1746 86.4311 28.5018 100 50 100C71.4983 100 89.8254 86.4311 96.8901 67.3912L50 63.0436L3.10999 67.3912Z" fill="#FFDA44"/>
<path d="M50 0C28.5018 0 10.1746 13.5688 3.10999 32.6088L50 36.9564L96.8901 32.6086C89.8254 13.5687 71.4983 0 50 0Z" fill="black"/>
<path d="M3.10996 32.6088C1.1002 38.0254 0 43.884 0 50C0 56.116 1.1002 61.9746 3.10996 67.3912H96.8902C98.9 61.9746 100 56.116 100 50C100 43.884 98.9 38.0254 96.89 32.6088H3.10996Z" fill="#D80027"/>
</g>
<defs>
<clipPath id="clip0_43_348">
<rect width="100" height="100" fill="white"/>
</clipPath>
</defs>
</svg>
