<svg width="100" height="100" viewBox="0 0 100 100" fill="none" xmlns="http://www.w3.org/2000/svg">
<g clip-path="url(#clip0_43_352)">
<path d="M0 50C0 71.4981 13.5688 89.8252 32.6084 96.8899L36.9564 49.9998L32.6084 3.10999C13.5688 10.1748 0 28.5018 0 50Z" fill="#6DA544"/>
<path d="M100 50C100 22.3859 77.6141 0 50 0C43.884 0 38.0252 1.1002 32.6084 3.10996V96.89C38.0252 98.9 43.884 100 50 100C77.6141 100 100 77.6141 100 50Z" fill="#D80027"/>
<path d="M32.6087 67.3912C42.2136 67.3912 50 59.6049 50 50C50 40.3951 42.2136 32.6088 32.6087 32.6088C23.0038 32.6088 15.2175 40.3951 15.2175 50C15.2175 59.6049 23.0038 67.3912 32.6087 67.3912Z" fill="#FFDA44"/>
<path d="M22.8262 41.3043V52.1739C22.8262 57.5766 27.2059 61.9565 32.6088 61.9565C38.0117 61.9565 42.3914 57.5768 42.3914 52.1739V41.3043H22.8262Z" fill="#D80027"/>
<path d="M32.6088 55.4348C30.8108 55.4348 29.3479 53.9719 29.3479 52.1738V47.8262H35.8696V52.174C35.8696 53.9719 34.4067 55.4348 32.6088 55.4348Z" fill="#F0F0F0"/>
</g>
<defs>
<clipPath id="clip0_43_352">
<rect width="100" height="100" fill="white"/>
</clipPath>
</defs>
</svg>
