<svg width="100" height="100" viewBox="0 0 100 100" fill="none" xmlns="http://www.w3.org/2000/svg">
<g clip-path="url(#clip0_43_350)">
<path d="M50 100C77.6142 100 100 77.6142 100 50C100 22.3858 77.6142 0 50 0C22.3858 0 0 22.3858 0 50C0 77.6142 22.3858 100 50 100Z" fill="#F0F0F0"/>
<path d="M67.3912 50C67.3912 54.3478 59.6049 65.2174 50 65.2174C40.3951 65.2174 32.6088 54.3478 32.6088 50C32.6088 40.3949 40.3951 32.6088 50 32.6088C59.6049 32.6088 67.3912 40.3949 67.3912 50Z" fill="#D80027"/>
<path d="M67.3912 50C67.3912 59.6051 59.6049 67.3912 50 67.3912C40.3951 67.3912 32.6088 59.6051 32.6088 50" fill="#0052B4"/>
<path d="M68.4325 65.3726L73.0433 60.7618L76.1173 63.8357L71.5064 68.4465L68.4325 65.3726Z" fill="black"/>
<path d="M60.7456 73.0577L65.3564 68.4469L68.4304 71.5208L63.8195 76.1316L60.7456 73.0577Z" fill="black"/>
<path d="M77.655 74.5939L82.2659 69.9831L85.3398 73.057L80.729 77.6679L77.655 74.5939Z" fill="black"/>
<path d="M69.9681 82.2801L74.579 77.6693L77.6529 80.7432L73.0421 85.354L69.9681 82.2801Z" fill="black"/>
<path d="M73.0436 69.9836L77.6544 65.3728L80.7283 68.4467L76.1175 73.0576L73.0436 69.9836Z" fill="black"/>
<path d="M65.3586 77.6685L69.9695 73.0577L73.0434 76.1316L68.4326 80.7425L65.3586 77.6685Z" fill="black"/>
<path d="M77.6753 34.6358L65.3797 22.3402L68.4536 19.2663L80.7492 31.5619L77.6753 34.6358Z" fill="black"/>
<path d="M65.3774 31.5631L60.7666 26.9523L63.8404 23.8785L68.4512 28.4893L65.3774 31.5631Z" fill="black"/>
<path d="M73.0623 39.2498L68.4514 34.6389L71.5252 31.5651L76.136 36.176L73.0623 39.2498Z" fill="black"/>
<path d="M74.5981 22.3398L69.9873 17.729L73.0613 14.655L77.6721 19.2659L74.5981 22.3398Z" fill="black"/>
<path d="M82.2871 30.0274L77.6763 25.4166L80.7502 22.3426L85.361 26.9535L82.2871 30.0274Z" fill="black"/>
<path d="M17.7255 69.975L30.021 82.2706L26.9471 85.3445L14.6515 73.0489L17.7255 69.975Z" fill="black"/>
<path d="M30.0204 73.0464L34.6312 77.6573L31.5574 80.7311L26.9466 76.1202L30.0204 73.0464Z" fill="black"/>
<path d="M22.335 65.3632L26.9458 69.974L23.8719 73.0479L19.261 68.4371L22.335 65.3632Z" fill="black"/>
<path d="M26.9464 60.751L39.242 73.0466L36.1681 76.1206L23.8725 63.825L26.9464 60.751Z" fill="black"/>
<path d="M30.0198 17.7194L17.7242 30.015L14.6503 26.9411L26.9458 14.6455L30.0198 17.7194Z" fill="black"/>
<path d="M34.6306 22.3298L22.335 34.6254L19.2611 31.5514L31.5567 19.2558L34.6306 22.3298Z" fill="black"/>
<path d="M39.2458 26.9434L26.9503 39.239L23.8765 36.1652L36.1721 23.8696L39.2458 26.9434Z" fill="black"/>
</g>
<defs>
<clipPath id="clip0_43_350">
<rect width="100" height="100" fill="white"/>
</clipPath>
</defs>
</svg>
