<svg width="22" height="18" viewBox="0 0 22 18" fill="none" xmlns="http://www.w3.org/2000/svg">
<path fill-rule="evenodd" clip-rule="evenodd" d="M10.5534 0.0641289C10.8249 0.184226 11 0.453152 11 0.750015V17.25C11 17.5469 10.8249 17.8158 10.5534 17.9359C10.2819 18.056 9.96516 18.0047 9.7455 17.805L4.46004 13H1.75C0.783502 13 0 12.2165 0 11.25V6.75001C0 5.78352 0.783502 5.00001 1.75 5.00001H4.46004L9.7455 0.19506C9.96516 -0.00463217 10.2819 -0.0559682 10.5534 0.0641289ZM9.5 2.44543L5.2545 6.30497C5.11645 6.43047 4.93657 6.50001 4.75 6.50001H1.75C1.61193 6.50001 1.5 6.61194 1.5 6.75001V11.25C1.5 11.3881 1.61193 11.5 1.75 11.5H4.75C4.93657 11.5 5.11645 11.5696 5.2545 11.6951L9.5 15.5546V2.44543Z" fill="#24292F"/>
<path d="M17.7175 1.22183C18.0104 0.928933 18.4853 0.928932 18.7782 1.22183C23.0739 5.51759 23.0739 12.4824 18.7782 16.7782C18.4853 17.0711 18.0104 17.0711 17.7175 16.7782C17.4246 16.4853 17.4246 16.0104 17.7175 15.7175C21.4275 12.0075 21.4275 5.99247 17.7175 2.28249C17.4246 1.98959 17.4246 1.51472 17.7175 1.22183Z" fill="#24292F"/>
<path d="M15.2426 4.75738C14.9497 4.46449 14.4748 4.46449 14.182 4.75738C13.8891 5.05027 13.8891 5.52515 14.182 5.81804C15.9393 7.5754 15.9393 10.4246 14.182 12.182C13.8891 12.4749 13.8891 12.9498 14.182 13.2427C14.4748 13.5356 14.9497 13.5356 15.2426 13.2427C17.5858 10.8995 17.5858 7.10053 15.2426 4.75738Z" fill="#24292F"/>
</svg>
