<svg width="100" height="100" viewBox="0 0 100 100" fill="none" xmlns="http://www.w3.org/2000/svg">
<g clip-path="url(#clip0_43_349)">
<path d="M50 100C77.6142 100 100 77.6142 100 50C100 22.3858 77.6142 0 50 0C22.3858 0 0 22.3858 0 50C0 77.6142 22.3858 100 50 100Z" fill="#D80027"/>
<path d="M62.0221 41.248L66.1246 46.9014L72.7686 44.7471L68.6596 50.3955L72.7615 56.0486L66.1199 53.8861L62.0112 59.5346L62.0155 52.55L55.3737 50.3875L62.0178 48.2332L62.0221 41.248Z" fill="#F0F0F0"/>
<path d="M50.826 64.5219C43.0221 64.5219 36.6955 58.1953 36.6955 50.3914C36.6955 42.5875 43.0221 36.2609 50.826 36.2609C53.2592 36.2609 55.5486 36.8764 57.5475 37.9594C54.4117 34.8926 50.1232 33 45.3912 33C35.7861 33 28 40.7863 28 50.3912C28 59.9961 35.7863 67.7824 45.3912 67.7824C50.1236 67.7824 54.4119 65.8896 57.5475 62.823C55.5486 63.9064 53.2592 64.5219 50.826 64.5219V64.5219Z" fill="#F0F0F0"/>
</g>
<defs>
<clipPath id="clip0_43_349">
<rect width="100" height="100" fill="white"/>
</clipPath>
</defs>
</svg>
