<svg width="100" height="100" viewBox="0 0 100 100" fill="none" xmlns="http://www.w3.org/2000/svg">
<g clip-path="url(#clip0_43_347)">
<path d="M50 100C77.6142 100 100 77.6142 100 50C100 22.3858 77.6142 0 50 0C22.3858 0 0 22.3858 0 50C0 77.6142 22.3858 100 50 100Z" fill="#F0F0F0"/>
<path d="M10.3359 19.559C6.40835 24.669 3.44683 30.5586 1.72241 36.9569H27.7337L10.3359 19.559Z" fill="#0052B4"/>
<path d="M98.2775 36.9569C96.5531 30.5588 93.5914 24.6692 89.6641 19.5592L72.2666 36.9569H98.2775Z" fill="#0052B4"/>
<path d="M1.72241 63.0438C3.44702 69.4418 6.40854 75.3315 10.3359 80.4412L27.7332 63.0438H1.72241Z" fill="#0052B4"/>
<path d="M80.441 10.3361C75.331 6.40861 69.4416 3.44708 63.0433 1.72247V27.7336L80.441 10.3361Z" fill="#0052B4"/>
<path d="M19.559 89.6639C24.6689 93.5914 30.5586 96.5529 36.9566 98.2775V72.2666L19.559 89.6639Z" fill="#0052B4"/>
<path d="M36.9564 1.72247C30.5584 3.44708 24.6687 6.40861 19.559 10.3359L36.9564 27.7334V1.72247Z" fill="#0052B4"/>
<path d="M63.0435 98.2775C69.4415 96.5529 75.3312 93.5914 80.4409 89.6641L63.0435 72.2666V98.2775Z" fill="#0052B4"/>
<path d="M72.2666 63.0438L89.6641 80.4414C93.5914 75.3317 96.5531 69.4418 98.2775 63.0438H72.2666Z" fill="#0052B4"/>
<path d="M99.5768 43.4783H56.5221H56.5219V0.423242C54.3869 0.145313 52.2104 0 50 0C47.7893 0 45.6131 0.145313 43.4783 0.423242V43.4779V43.4781H0.423242C0.145313 45.6131 0 47.7896 0 50C0 52.2107 0.145313 54.3869 0.423242 56.5217H43.4779H43.4781V99.5768C45.6131 99.8547 47.7893 100 50 100C52.2104 100 54.3869 99.8549 56.5217 99.5768V56.5221V56.5219H99.5768C99.8547 54.3869 100 52.2107 100 50C100 47.7896 99.8547 45.6131 99.5768 43.4783V43.4783Z" fill="#D80027"/>
<path d="M63.0436 63.0438L85.3553 85.3555C86.3815 84.3297 87.3604 83.2573 88.2944 82.1455L69.1924 63.0436H63.0436V63.0438Z" fill="#D80027"/>
<path d="M36.9564 63.0438H36.9561L14.6445 85.3553C15.6703 86.3815 16.7428 87.3604 17.8545 88.2943L36.9564 69.192V63.0438Z" fill="#D80027"/>
<path d="M36.9565 36.9568V36.9564L14.6448 14.6445C13.6186 15.6703 12.6397 16.7428 11.7057 17.8545L30.8078 36.9566H36.9565V36.9568Z" fill="#D80027"/>
<path d="M63.0436 36.9568L85.3555 14.6447C84.3297 13.6186 83.2573 12.6397 82.1455 11.7059L63.0436 30.808V36.9568Z" fill="#D80027"/>
</g>
<defs>
<clipPath id="clip0_43_347">
<rect width="100" height="100" fill="white"/>
</clipPath>
</defs>
</svg>
